<svg width="13" height="13" viewBox="0 0 13 13" fill="none" xmlns="http://www.w3.org/2000/svg">
<g clip-path="url(#clip0_202_1227)">
<path d="M11.375 0H1.625C0.727596 0 0 0.727596 0 1.625V11.375C0 12.2724 0.727596 13 1.625 13H11.375C12.2724 13 13 12.2724 13 11.375V1.625C13 0.727596 12.2724 0 11.375 0ZM8.51094 7.9365C8.66979 8.09535 8.66979 8.3525 8.51094 8.51094C8.35208 8.66979 8.09494 8.66979 7.9365 8.51094L6.5 7.07444L5.0635 8.51052C4.90465 8.66939 4.6475 8.66939 4.48906 8.51052C4.33021 8.35167 4.33021 8.09452 4.48906 7.93608L5.92556 6.5L4.48906 5.0639C4.33021 4.90506 4.33021 4.6479 4.48906 4.48948C4.6479 4.33064 4.90506 4.33064 5.0635 4.48948L6.5 5.92556L7.9365 4.48906C8.09535 4.33021 8.3525 4.33021 8.51094 4.48906C8.66979 4.6479 8.66979 4.90506 8.51094 5.0635L7.07444 6.5L8.51094 7.9365Z" fill="#FF0000"/>
</g>
<defs>
<clipPath id="clip0_202_1227">
<rect width="13" height="13" fill="white"/>
</clipPath>
</defs>
</svg>
